<?xml version="1.0" encoding="utf-8"?>
<!-- Generator: Adobe Illustrator 21.0.2, SVG Export Plug-In . SVG Version: 6.00 Build 0)  -->
<svg version="1.1" id="Layer_1" xmlns="http://www.w3.org/2000/svg" xmlns:xlink="http://www.w3.org/1999/xlink" x="0px" y="0px"
	 viewBox="0 0 23.8 30" style="enable-background:new 0 0 23.8 30;" xml:space="preserve">
<style type="text/css">
	.st0{fill:#48D1CC;}
</style>
<g>
	<g>
		<g>
			<path class="st0" d="M17.9,15.3c0,0.2-0.1,0.4-0.2,0.8c-0.1,0.3-0.1,0.6-0.1,0.8c0-0.3-0.1-0.8-0.3-1.6l-0.9-3.4h-2.1l2.2,6.8
				h2.2l2.2-6.8h-2.1L17.9,15.3z"/>
			<path class="st0" d="M23.6,5l-4.8-4.8C18.7,0.1,18.5,0,18.3,0H0.7C0.3,0,0,0.3,0,0.7v28.6C0,29.7,0.3,30,0.7,30h22.4
				c0.4,0,0.7-0.3,0.7-0.7V5.5C23.8,5.3,23.7,5.1,23.6,5z M19,2.4l2.3,2.3H19V2.4L19,2.4z M1.4,28.6V1.5h16.2v3.9
				c0,0.4,0.3,0.7,0.7,0.7h4.1v22.4h-21V28.6z"/>
			<path class="st0" d="M6.4,13.3c0.3,0,0.6,0,0.8,0.1c0.3,0.1,0.5,0.2,0.8,0.3l0.6-1.4c-0.7-0.3-1.4-0.5-2.1-0.5s-1.3,0.1-1.8,0.4
				c-0.5,0.3-0.9,0.7-1.1,1.2c-0.3,0.5-0.4,1.1-0.4,1.9c0,1.1,0.3,2,0.8,2.6s1.3,0.9,2.4,0.9c0.7,0,1.4-0.1,1.9-0.4v-1.6
				C8,16.9,7.7,17,7.5,17.1c-0.3,0.1-0.6,0.1-0.9,0.1c-1,0-1.5-0.7-1.5-2c0-0.6,0.1-1.1,0.4-1.5C5.6,13.5,5.9,13.3,6.4,13.3z"/>
			<path class="st0" d="M12.4,14.6c-0.6-0.3-1-0.5-1.1-0.6s-0.2-0.2-0.2-0.4c0-0.1,0.1-0.2,0.2-0.3c0.1-0.1,0.3-0.1,0.5-0.1
				c0.5,0,1,0.1,1.6,0.4l0.6-1.4c-0.7-0.3-1.4-0.5-2.1-0.5c-0.8,0-1.4,0.2-1.9,0.5S9.3,13,9.3,13.7c0,0.3,0.1,0.6,0.2,0.9
				c0.1,0.2,0.3,0.5,0.5,0.6c0.2,0.2,0.6,0.4,1,0.6c0.5,0.2,0.8,0.4,0.9,0.4c0.1,0.1,0.2,0.1,0.2,0.2c0.1,0.1,0.1,0.2,0.1,0.2
				c0,0.1-0.1,0.3-0.2,0.4c-0.1,0.1-0.3,0.1-0.6,0.1s-0.7-0.1-1-0.2c-0.4-0.1-0.7-0.2-1.1-0.4v1.6c0.3,0.2,0.6,0.3,1,0.3
				c0.3,0.1,0.7,0.1,1.1,0.1c0.5,0,1-0.1,1.4-0.3c0.4-0.2,0.7-0.4,0.9-0.8c0.2-0.3,0.3-0.7,0.3-1.1c0-0.5-0.1-0.8-0.3-1.1
				C13.4,15.2,13,14.9,12.4,14.6z"/>
		</g>
	</g>
</g>
</svg>
